HIERARCHY
ROOT Hips
{
     OFFSET 21.26300 93.27200 -16.45100
     CHANNELS 6 Xposition Yposition Zposition Zrotation Xrotation Yrotation
     JOINT Spine
     {
          OFFSET 0.00000 11.89050 0.00000
          CHANNELS 3 Zrotation Xrotation Yrotation
          JOINT Spine1
          {
               OFFSET 0.00000 25.65740 0.12766
               CHANNELS 3 Zrotation Xrotation Yrotation
               JOINT HEad
               {
                    OFFSET 0.00000 8.73416 0.01134
                    CHANNELS 3 Zrotation Xrotation Yrotation
                    End Site
                    {
                         OFFSET -0.29000 12.77420 2.51395
                    }
               }
               JOINT LeftShoulder1
               {
                    OFFSET 8.99000 -0.36225 -0.22000
                    CHANNELS 3 Zrotation Xrotation Yrotation
                    JOINT LeftArm
                    {
                         OFFSET 10.28270 -0.00338 0.32212
                         CHANNELS 3 Zrotation Xrotation Yrotation
                         JOINT LeftForeArm
                         {
                              OFFSET 32.76690 0.09914 -1.42434
                              CHANNELS 3 Zrotation Xrotation Yrotation
                              JOINT LeftHand
                              {
                                   OFFSET 27.56430 0.08536 1.02216
                                   CHANNELS 3 Zrotation Xrotation Yrotation
                                   End Site
                                   {
                                        OFFSET 16.74430 -0.60000 1.50291
                                   }
                              }
                         }
                    }
               }
               JOINT RightShoulder
               {
                    OFFSET -8.99000 -0.36225 -0.22000
                    CHANNELS 3 Zrotation Xrotation Yrotation
                    JOINT RightArm
                    {
                         OFFSET -10.28270 -0.00338 0.32212
                         CHANNELS 3 Zrotation Xrotation Yrotation
                         JOINT RightForeArm
                         {
                              OFFSET -32.89710 0.09914 -1.42434
                              CHANNELS 3 Zrotation Xrotation Yrotation
                              JOINT RightHand
                              {
                                   OFFSET -27.49210 0.08536 1.02216
                                   CHANNELS 3 Zrotation Xrotation Yrotation
                                   End Site
                                   {
                                        OFFSET -16.63120 -0.60000 1.50291
                                   }
                              }
                         }
                    }
               }
          }
     }
     JOINT LeftUpLeg
     {
          OFFSET 8.94580 -8.66707 0.10165
          CHANNELS 3 Zrotation Xrotation Yrotation
          JOINT LeftLeg
          {
               OFFSET 0.00000 -44.42270 1.37270
               CHANNELS 3 Zrotation Xrotation Yrotation
               JOINT LeftFoot
               {
                    OFFSET -0.25355 -42.09240 -1.46059
                    CHANNELS 3 Zrotation Xrotation Yrotation
                    JOINT LeftToes
                    {
                         OFFSET -0.04000 -4.41509 8.49910
                         CHANNELS 3 Zrotation Xrotation Yrotation
                         End Site
                         {
                              OFFSET 0.08000 -0.04745 9.77979
                         }
                    }
               }
          }
     }
     JOINT RightUpLeg
     {
          OFFSET -8.94580 -8.66707 0.10165
          CHANNELS 3 Zrotation Xrotation Yrotation
          JOINT RightLeg
          {
               OFFSET 0.00000 -44.42270 1.37270
               CHANNELS 3 Zrotation Xrotation Yrotation
               JOINT RightFoot
               {
                    OFFSET 0.25355 -42.09240 -1.46059
                    CHANNELS 3 Zrotation Xrotation Yrotation
                    JOINT RightToes
                    {
                         OFFSET 0.04000 -4.41509 8.49910
                         CHANNELS 3 Zrotation Xrotation Yrotation
                         End Site
                         {
                              OFFSET -0.08000 -0.13745 9.77979
                         }
                    }
               }
          }
     }
}
MOTION
Frames: 12
Frame Time: 0.01667
22.86180 89.79670 -7.52819 1.40008 -9.83052 25.72070 7.22124 6.35401 4.84629 6.34152 14.73160 9.77514 -17.28620 30.00540 -25.36020 0.00000 0.00000 0.00000 -76.56300 19.58190 -80.70210 -6.78876 15.73950 -79.07160 30.97960 5.94147 -10.37510 1.11667 0.49554 4.88746 98.38340 7.74005 132.84300 13.81770 40.44700 122.86800 18.14950 12.03620 8.70602 -10.59430 -30.31490 -6.86496 14.12810 31.70950 -33.75520 -19.56080 3.81718 1.93489 -0.28175 3.25676 -11.54940 -5.27965 15.30070 -0.80705 3.86757 46.40410 14.25680 26.02890 -20.97920 2.90314 -2.83563 -7.42978 -7.11126 
22.98780 89.86910 -7.43827 1.24448 -9.63776 25.59090 7.21245 6.37801 4.75632 6.36079 14.76580 9.55943 -17.69330 29.14920 -24.93450 0.00000 0.00000 0.00000 -76.54050 19.90350 -80.80840 -6.79590 15.31620 -78.91230 31.10550 5.90813 -10.43330 1.27341 0.49518 4.71347 97.93440 7.74980 133.13699 13.60310 40.30070 122.92600 18.62930 12.03910 8.39647 -10.59600 -30.43750 -6.66980 14.38520 31.62670 -34.07440 -19.62210 3.53497 1.89451 -0.20560 3.34075 -11.53800 -5.28962 15.08290 -0.39424 4.13597 46.25760 13.73210 26.23530 -20.68180 2.85818 -2.45708 -6.46426 -6.42124 
23.12390 89.92670 -7.32762 1.09064 -9.50982 25.43610 7.21242 6.37113 4.65559 6.39777 14.73770 9.32507 -18.11960 28.45150 -24.45210 0.00000 0.00000 0.00000 -76.55380 20.13340 -80.82120 -6.76099 15.00520 -78.76930 31.19420 5.89134 -10.44970 1.46571 0.50394 4.67443 97.66630 7.62240 133.25200 13.33070 40.17920 123.00000 18.86870 12.01560 8.10228 -10.54580 -30.52650 -6.44017 14.65660 31.60130 -34.36250 -19.85670 3.29118 1.87721 -0.21408 3.34777 -11.59840 -5.27130 14.91820 -0.10893 4.18884 46.13970 13.45350 26.49640 -20.35080 2.81064 -1.90684 -5.12645 -5.18309 
23.28410 89.97690 -7.18971 0.96892 -9.40672 25.24050 7.21712 6.33162 4.56861 6.42388 14.64860 9.12855 -18.55980 27.94670 -23.99180 0.00000 0.00000 0.00000 -76.54320 20.26140 -80.77450 -6.70969 14.84420 -78.67770 31.22830 5.88928 -10.44010 1.65874 0.51817 4.73082 97.57810 7.42631 133.20900 13.12950 40.12430 123.05000 18.93020 11.98350 7.87592 -10.49430 -30.57540 -6.29526 14.84250 31.62170 -34.43980 -20.16290 3.17647 1.88775 -0.36786 3.20146 -11.70410 -5.30622 14.81030 0.10252 4.12530 46.01720 13.34830 26.73510 -20.00020 2.75422 -1.28691 -3.53015 -3.68312 
23.46820 90.02910 -7.03593 0.90722 -9.33084 25.00680 7.21241 6.28732 4.51995 6.43239 14.54930 9.02310 -18.91630 27.61890 -23.71490 0.00000 0.00000 0.00000 -76.48250 20.33390 -80.73950 -6.64316 14.81650 -78.66390 31.17660 5.89961 -10.42850 1.84061 0.53245 4.79568 97.61240 7.24988 133.09500 13.03790 40.13460 123.07700 18.93660 11.96030 7.73617 -10.47920 -30.55700 -6.32406 14.87560 31.69290 -34.20620 -20.34070 3.18599 1.90667 -0.60812 2.95476 -11.80220 -5.42726 14.78120 0.25363 3.98822 45.88280 13.42200 26.86490 -19.69130 2.69412 -0.70180 -1.66003 -2.58561 
23.66170 90.08060 -6.88673 0.90403 -9.30965 24.74370 7.18830 6.27164 4.52198 6.44899 14.49640 9.02817 -19.06960 27.43880 -23.74330 0.00000 0.00000 0.00000 -76.43160 20.38300 -80.74830 -6.51477 14.91370 -78.75440 31.03300 5.92619 -10.40400 1.99259 0.54181 4.80519 97.69340 7.13710 133.01401 13.02540 40.18590 123.09800 18.93530 11.95270 7.69321 -10.49700 -30.46850 -6.52958 14.76410 31.84290 -33.69270 -20.26180 3.24238 1.90864 -0.82958 2.71380 -11.84390 -5.60076 14.83760 0.28512 3.72605 45.76180 13.76640 26.81790 -19.43050 2.62551 -0.30055 -0.01223 -2.35328 
23.84870 90.11630 -6.75667 0.93319 -9.34422 24.44910 7.14252 6.29225 4.57200 6.49524 14.49960 9.12608 -18.91320 27.38830 -24.09200 0.00000 0.00000 0.00000 -76.47000 20.39830 -80.77150 -6.26321 15.13360 -78.96560 30.86790 5.96865 -10.33180 2.09228 0.54466 4.75801 97.74060 7.07192 133.02800 13.06140 40.24260 123.10900 18.90950 11.95830 7.74140 -10.52130 -30.35690 -6.83895 14.57010 32.09390 -33.01480 -19.96970 3.27925 1.88629 -0.99661 2.51225 -11.80740 -5.77891 14.93730 0.12331 3.25656 45.69690 14.46380 26.59010 -19.17100 2.53784 -0.20684 0.63221 -2.82783 
24.02480 90.12600 -6.64605 0.96707 -9.40275 24.10290 7.08400 6.32655 4.65417 6.56053 14.52000 9.27982 -18.39960 27.46980 -24.69000 0.00000 0.00000 0.00000 -76.63320 20.34070 -80.74540 -5.88533 15.45970 -79.28070 30.79320 6.01650 -10.19340 2.12507 0.54331 4.70617 97.71180 7.01000 133.12100 13.13300 40.27360 123.09400 18.84410 11.96930 7.84690 -10.52000 -30.27580 -7.13819 14.34760 32.42470 -32.28210 -19.59770 3.30766 1.85452 -1.22639 2.22011 -11.70970 -5.94860 15.01710 -0.20845 2.58719 45.71080 15.45300 26.23390 -18.89970 2.43507 -0.41418 0.11671 -3.60627 
24.19740 90.11800 -6.54503 0.98842 -9.45110 23.66480 7.03096 6.34538 4.75136 6.61213 14.51470 9.46342 -17.57390 27.70220 -25.44260 0.00000 0.00000 0.00000 -76.92350 20.17630 -80.61930 -5.44610 15.86250 -79.65010 30.87230 6.06045 -9.99269 2.08649 0.54099 4.70421 97.64470 6.92620 133.23399 13.21960 40.27380 123.05200 18.75200 11.97660 7.94823 -10.45400 -30.24330 -7.29477 14.12320 32.77250 -31.56360 -19.24350 3.38210 1.83180 -1.68846 1.64866 -11.57870 -6.13012 15.03710 -0.57899 1.83236 45.78660 16.53850 25.79690 -18.66940 2.33544 -0.78058 -0.93188 -4.55912 
24.37340 90.11520 -6.44790 0.99572 -9.47647 23.07870 6.99147 6.34141 4.85730 6.61297 14.48020 9.67834 -16.50700 28.10470 -26.25820 0.00000 0.00000 0.00000 -77.31810 19.90140 -80.39330 -5.01998 16.30280 -80.01400 31.09220 6.09813 -9.74789 1.98735 0.53885 4.76160 97.62690 6.83595 133.30200 13.27470 40.24930 123.00600 18.65950 11.97510 7.99809 -10.28240 -30.23660 -7.21131 13.89470 33.06840 -30.86700 -18.93430 3.51767 1.82286 -2.39763 0.77647 -11.41750 -6.35169 14.99260 -0.85990 1.10084 45.89020 17.52910 25.26110 -18.54350 2.25157 -1.14583 -1.75228 -5.80290 
24.55310 90.14370 -6.36194 1.00280 -9.49068 22.28790 6.94955 6.33166 4.97436 6.52879 14.44880 9.93960 -15.21330 28.69320 -27.03070 0.00000 0.00000 0.00000 -77.74900 19.54230 -80.11690 -4.64932 16.72670 -80.31840 31.40610 6.12793 -9.49096 1.86304 0.53644 4.84061 97.74020 6.77319 133.27000 13.28050 40.21590 122.96200 18.57700 11.96600 7.99776 -9.96810 -30.20660 -6.89257 13.59700 33.27090 -30.09830 -18.64280 3.68213 1.81953 -3.18683 -0.21782 -11.19850 -6.63019 14.90250 -0.99967 0.42159 45.99540 18.29330 24.53680 -18.55140 2.17958 -1.40177 -1.91691 -7.39338 
24.73250 90.22080 -6.30008 1.02392 -9.51325 21.25500 6.87295 6.33300 5.10195 6.33391 14.44320 10.24740 -13.66850 29.50390 -27.64280 0.00000 0.00000 0.00000 -78.12220 19.13810 -79.84830 -4.35268 17.07200 -80.52450 31.75750 6.14955 -9.25130 1.77682 0.53468 4.89555 98.05350 6.75188 133.06700 13.31410 40.23230 122.85400 18.47460 11.95310 7.98720 -9.48311 -30.10950 -6.43069 13.11570 33.37310 -29.09880 -18.31250 3.84856 1.81167 -3.87822 -1.13920 -10.89460 -6.96170 14.79280 -1.03810 -0.24715 46.08540 18.74490 23.51530 -18.69690 2.10645 -1.49895 -1.39998 -9.20787 
